# xmcd
#
# Track frame offsets:
#	300
#	12163
#	28930
#	42476
#	57030
#	68438
#	83651
#	99186
#	112262
#	125502
#
# Disc length: 1873 seconds
#
# Revision: 0
# Processed by: cddbd v1.5.1PL0 Copyright (c) Steve Scherf et al.
# Submitted via: MusicWizard 7.1.1b
#
DISCID=7c074d0a
DTITLE=Johnny Cash - The Adventures Of Johnny Cash
DYEAR=1981
DGENRE=Country
TTITLE0=Georgia On A Fast Train
TTITLE1=John's
TTITLE2=Fairweather Friends
TTITLE3=Paradise
TTITLE4=We Must Believe In Magic
TTITLE5=Only Love
TTITLE6=Good Ol' American Guest
TTITLE7=I'll Cross Over Jordan Someday
TTITLE8=Sing A Song
TTITLE9=Ain't Gonna Hobo Nomore
EXTD=(c)1982 Columbia Records\nKatalog: FC 38094\nupc  0746438094200
EXTT0=
EXTT1=
EXTT2=
EXTT3=
EXTT4=
EXTT5=
EXTT6=
EXTT7=
EXTT8=
EXTT9=
PLAYORDER=
